<svg width="48" height="48" viewBox="0 0 48 48" fill="none" xmlns="http://www.w3.org/2000/svg">
<g clip-path="url(#clip0_414_3588)">
<path d="M47.9979 20.8C47.9997 18.7107 47.2567 16.6893 45.9024 15.0985C44.548 13.5076 42.671 12.4516 40.6083 12.12C40.7347 11.5554 40.7982 10.9785 40.7979 10.4C40.8002 8.92255 40.3927 7.47345 39.6207 6.21379C38.8487 4.95413 37.7424 3.93327 36.4249 3.26474C35.1074 2.5962 33.6303 2.30619 32.1579 2.42695C30.6854 2.54771 29.2753 3.07451 28.0843 3.94876C26.4586 2.15109 24.3263 0.888216 21.9686 0.326611C19.6108 -0.234994 17.1382 -0.0689716 14.8766 0.802795C12.6151 1.67456 10.6708 3.21115 9.30002 5.21002C7.92925 7.2089 7.19634 9.57622 7.1979 12V12.1488C5.24512 12.5082 3.47147 13.5179 2.16558 15.0136C0.859686 16.5093 0.0984291 18.403 0.00569446 20.3864C-0.0870402 22.3698 0.494206 24.3262 1.65484 25.9372C2.81548 27.5483 4.48718 28.7191 6.3979 29.2592V32H1.5979C1.17355 32 0.766583 32.1685 0.466524 32.4686C0.166466 32.7687 -0.00210495 33.1756 -0.00210495 33.6V43.2C-0.00210495 43.6243 0.166466 44.0313 0.466524 44.3313C0.766583 44.6314 1.17355 44.8 1.5979 44.8H3.9979V46.4H3.1979C2.98572 46.4 2.78224 46.4842 2.63221 46.6343C2.48218 46.7843 2.3979 46.9878 2.3979 47.2C2.3979 47.4121 2.48218 47.6156 2.63221 47.7657C2.78224 47.9157 2.98572 48 3.1979 48H11.1979C11.4101 48 11.6136 47.9157 11.7636 47.7657C11.9136 47.6156 11.9979 47.4121 11.9979 47.2C11.9979 46.9878 11.9136 46.7843 11.7636 46.6343C11.6136 46.4842 11.4101 46.4 11.1979 46.4H10.3979V44.8H12.7979C13.2222 44.8 13.6292 44.6314 13.9293 44.3313C14.2293 44.0313 14.3979 43.6243 14.3979 43.2V33.6C14.3979 33.1756 14.2293 32.7687 13.9293 32.4686C13.6292 32.1685 13.2222 32 12.7979 32H7.9979V29.5592C8.2619 29.5832 8.5275 29.6 8.7979 29.6H23.1979V32H18.3979C17.9736 32 17.5666 32.1685 17.2665 32.4686C16.9665 32.7687 16.7979 33.1756 16.7979 33.6V43.2C16.7979 43.6243 16.9665 44.0313 17.2665 44.3313C17.5666 44.6314 17.9736 44.8 18.3979 44.8H20.7979V46.4H19.9979C19.7857 46.4 19.5822 46.4842 19.4322 46.6343C19.2822 46.7843 19.1979 46.9878 19.1979 47.2C19.1979 47.4121 19.2822 47.6156 19.4322 47.7657C19.5822 47.9157 19.7857 48 19.9979 48H27.9979C28.2101 48 28.4136 47.9157 28.5636 47.7657C28.7136 47.6156 28.7979 47.4121 28.7979 47.2C28.7979 46.9878 28.7136 46.7843 28.5636 46.6343C28.4136 46.4842 28.2101 46.4 27.9979 46.4H27.1979V44.8H29.5979C30.0222 44.8 30.4292 44.6314 30.7293 44.3313C31.0293 44.0313 31.1979 43.6243 31.1979 43.2V33.6C31.1979 33.1756 31.0293 32.7687 30.7293 32.4686C30.4292 32.1685 30.0222 32 29.5979 32H24.7979V29.6H39.1979C39.4683 29.6 39.7339 29.5832 39.9979 29.5592V32H35.1979C34.7736 32 34.3666 32.1685 34.0665 32.4686C33.7665 32.7687 33.5979 33.1756 33.5979 33.6V43.2C33.5979 43.6243 33.7665 44.0313 34.0665 44.3313C34.3666 44.6314 34.7736 44.8 35.1979 44.8H37.5979V46.4H36.7979C36.5857 46.4 36.3822 46.4842 36.2322 46.6343C36.0822 46.7843 35.9979 46.9878 35.9979 47.2C35.9979 47.4121 36.0822 47.6156 36.2322 47.7657C36.3822 47.9157 36.5857 48 36.7979 48H44.7979C45.0101 48 45.2136 47.9157 45.3636 47.7657C45.5136 47.6156 45.5979 47.4121 45.5979 47.2C45.5979 46.9878 45.5136 46.7843 45.3636 46.6343C45.2136 46.4842 45.0101 46.4 44.7979 46.4H43.9979V44.8H46.3979C46.8222 44.8 47.2292 44.6314 47.5293 44.3313C47.8293 44.0313 47.9979 43.6243 47.9979 43.2V33.6C47.9979 33.1756 47.8293 32.7687 47.5293 32.4686C47.2292 32.1685 46.8222 32 46.3979 32H41.5979V29.2592C43.4387 28.7356 45.0589 27.6269 46.2136 26.1006C47.3683 24.5744 47.9946 22.7138 47.9979 20.8ZM8.7979 46.4H5.5979V44.8H8.7979V46.4ZM1.5979 43.2V41.6H12.7979V43.2H1.5979ZM12.7979 40H1.5979V33.6H12.7979V40ZM25.5979 46.4H22.3979V44.8H25.5979V46.4ZM18.3979 43.2V41.6H29.5979V43.2H18.3979ZM29.5979 40H18.3979V33.6H29.5979V40ZM42.3979 46.4H39.1979V44.8H42.3979V46.4ZM35.1979 43.2V41.6H46.3979V43.2H35.1979ZM46.3979 40H35.1979V33.6H46.3979V40ZM8.7979 28C7.72794 27.9993 6.67159 27.7602 5.70564 27.3001C4.7397 26.8399 3.88846 26.1702 3.21383 25.3398C2.53919 24.5093 2.05813 23.5389 1.80562 22.4992C1.55311 21.4595 1.5355 20.3765 1.75407 19.3291C1.97264 18.2817 2.4219 17.2962 3.06918 16.4443C3.71645 15.5923 4.54547 14.8953 5.49594 14.404C6.44641 13.9127 7.49444 13.6393 8.5638 13.6039C9.63317 13.5685 10.697 13.7718 11.6779 14.1992C11.8721 14.2827 12.0915 14.286 12.2882 14.2082C12.4848 14.1305 12.6427 13.9781 12.7272 13.7843C12.8118 13.5905 12.8162 13.3711 12.7395 13.1741C12.6628 12.977 12.5112 12.8184 12.3179 12.7328C11.2055 12.2553 10.0085 12.0061 8.7979 12C8.79912 9.5831 9.64205 7.24212 11.1819 5.37926C12.7217 3.51641 14.8622 2.24801 17.2357 1.792C19.6091 1.336 22.0673 1.72087 24.1878 2.88047C26.3083 4.04008 27.9587 5.90202 28.8555 8.14636C28.9356 8.34166 29.0897 8.49736 29.2842 8.57953C29.4786 8.6617 29.6977 8.66368 29.8936 8.58505C30.0895 8.50641 30.2464 8.35352 30.3301 8.15971C30.4137 7.9659 30.4174 7.74687 30.3403 7.55036C30.0081 6.72568 29.5855 5.94035 29.0803 5.20876C30.0343 4.5195 31.1604 4.10752 32.3339 4.01839C33.5075 3.92927 34.6828 4.16646 35.73 4.70374C36.7771 5.24102 37.6553 6.05745 38.2673 7.06274C38.8794 8.06804 39.2014 9.22302 39.1979 10.4C39.198 10.9428 39.1276 11.4833 38.9883 12.008C38.1638 12.024 37.3456 12.1559 36.5579 12.4C36.3749 12.4568 36.2184 12.5774 36.1168 12.7399C36.0152 12.9024 35.9754 13.0959 36.0044 13.2853C36.0335 13.4747 36.1296 13.6474 36.2752 13.7719C36.4208 13.8965 36.6063 13.9646 36.7979 13.964C36.8793 13.9638 36.9602 13.9514 37.0379 13.9272C37.6645 13.7306 38.3151 13.6205 38.9715 13.6C40.9043 13.5932 42.763 14.3425 44.1507 15.6879C45.5384 17.0332 46.3449 18.8679 46.3979 20.8C46.3958 22.7089 45.6365 24.539 44.2867 25.8888C42.9369 27.2386 41.1068 27.9978 39.1979 28H8.7979Z" fill="#E47611"/>
</g>
<defs>
<clipPath id="clip0_414_3588">
<rect width="48" height="48" fill="white"/>
</clipPath>
</defs>
</svg>
