<svg width="60" height="60" viewBox="0 0 60 60" fill="none" xmlns="http://www.w3.org/2000/svg">
<g clip-path="url(#clip0_421_386)">
<path d="M58.2429 0H30.0007C29.0291 0 28.2429 0.786211 28.2429 1.75781V15.9375C28.2429 16.9091 29.0291 17.6953 30.0007 17.6953H42.3054V21.2109H26.4851V35.2734C27.4567 35.2734 28.2429 36.0596 28.2429 37.0312C28.2429 38.0029 27.4567 38.7891 26.4851 38.7891H8.90695C7.93535 38.7891 7.14914 38.0029 7.14914 37.0312C7.14914 36.0596 7.93535 35.2734 8.90695 35.2734V21.2109H5.27414C4.41586 21.2109 3.68109 21.8324 3.54035 22.6804L0.269531 42.3047H59.7318L56.4609 22.6804C56.3203 21.8324 55.5855 21.2109 54.7273 21.2109H45.821V17.6953H58.2429C59.2145 17.6953 60.0007 16.9091 60.0007 15.9375V1.75781C60.0007 0.786211 59.2145 0 58.2429 0ZM37.032 38.7891H33.5163C32.5447 38.7891 31.7585 38.0029 31.7585 37.0312C31.7585 36.0596 32.5447 35.2734 33.5163 35.2734H37.032C38.0036 35.2734 38.7898 36.0596 38.7898 37.0312C38.7898 38.0029 38.0036 38.7891 37.032 38.7891ZM37.032 31.7578H33.5163C32.5447 31.7578 31.7585 30.9716 31.7585 30C31.7585 29.0284 32.5447 28.2422 33.5163 28.2422H37.032C38.0036 28.2422 38.7898 29.0284 38.7898 30C38.7898 30.9716 38.0036 31.7578 37.032 31.7578ZM47.5788 38.7891H44.0632C43.0916 38.7891 42.3054 38.0029 42.3054 37.0312C42.3054 36.0596 43.0916 35.2734 44.0632 35.2734H47.5788C48.5504 35.2734 49.3366 36.0596 49.3366 37.0312C49.3366 38.0029 48.5504 38.7891 47.5788 38.7891ZM47.5788 28.2422C48.5504 28.2422 49.3366 29.0284 49.3366 30C49.3366 30.9716 48.5504 31.7578 47.5788 31.7578H44.0632C43.0916 31.7578 42.3054 30.9716 42.3054 30C42.3054 29.0284 43.0916 28.2422 44.0632 28.2422H47.5788ZM44.0632 10.6641C43.0924 10.6641 42.3054 9.87703 42.3054 8.90625C42.3054 7.93523 43.0924 7.14844 44.0632 7.14844C45.034 7.14844 45.821 7.93523 45.821 8.90625C45.821 9.87703 45.034 10.6641 44.0632 10.6641ZM51.0945 10.6641C50.1237 10.6641 49.3366 9.87703 49.3366 8.90625C49.3366 7.93523 50.1237 7.14844 51.0945 7.14844C52.0652 7.14844 52.8523 7.93523 52.8523 8.90625C52.8523 9.87703 52.0652 10.6641 51.0945 10.6641Z" />
<path d="M21.2109 14.1797H14.1797C13.2089 14.1797 12.4219 14.9665 12.4219 15.9375V35.2734H22.9688V15.9375C22.9688 14.9665 22.1817 14.1797 21.2109 14.1797ZM0 58.2422C0 59.2138 0.786211 60 1.75781 60H58.2422C59.2138 60 60 59.2138 60 58.2422V45.8203H0V58.2422ZM26.4844 51.0938H33.5156C34.4872 51.0938 35.2734 51.88 35.2734 52.8516C35.2734 53.8232 34.4872 54.6094 33.5156 54.6094H26.4844C25.5128 54.6094 24.7266 53.8232 24.7266 52.8516C24.7266 51.88 25.5128 51.0938 26.4844 51.0938Z"/>
</g>
<defs>
<clipPath id="clip0_421_386">
<rect width="60" height="60"/>
</clipPath>
</defs>
</svg>
