<svg width="60" height="60" viewBox="0 0 60 60" fill="none" xmlns="http://www.w3.org/2000/svg">
<path d="M12.6269 34.1546H47.3633C52.4724 34.1546 56.6269 30 56.6269 24.8909C56.6269 20.3455 53.236 16.4091 48.736 15.7273C48.5904 15.7042 48.457 15.6322 48.3579 15.5231C48.2587 15.414 48.1997 15.2744 48.1906 15.1273C47.8724 8.17275 42.1542 2.72729 35.1815 2.72729C30.2451 2.72729 25.7906 5.46366 23.5633 9.86366C23.4724 10.0455 23.2996 10.1727 23.0996 10.2091C22.8996 10.2455 22.6906 10.1727 22.5451 10.0364C21.8992 9.39131 21.1322 8.88015 20.2882 8.53225C19.4442 8.18436 18.5398 8.00658 17.6269 8.00911C13.7724 8.00911 10.636 11.1455 10.636 15C10.636 15.1 10.636 15.2091 10.6451 15.3091C10.6633 15.6182 10.4724 15.8909 10.1724 15.9727C6.16328 17.0637 3.36328 20.7364 3.36328 24.8909C3.36328 29.9909 7.51783 34.1546 12.6269 34.1546ZM35.1815 5.7182C40.436 5.7182 44.7451 9.82729 44.9906 15.0637C45.0087 15.4182 44.736 15.7182 44.3815 15.7364H44.3542C44.0178 15.7364 43.736 15.4727 43.7178 15.1273C43.6142 12.9344 42.6691 10.8659 41.0791 9.35217C39.4892 7.83841 37.3768 6.99594 35.1815 7.00002C34.8269 7.00002 34.5451 6.7182 34.5451 6.36366C34.5451 6.00911 34.8269 5.7182 35.1815 5.7182ZM52.8815 37.8091C51.4815 37.8091 50.3087 38.8 50.0178 40.1091H44.0633V35.8546H42.7815V40.7455C42.7815 41.0909 43.0633 41.3818 43.4178 41.3818H50.0178C50.1637 42.0331 50.5266 42.6153 51.0469 43.0332C51.5672 43.4512 52.2141 43.6798 52.8815 43.6818C54.4996 43.6818 55.8178 42.3637 55.8178 40.7455C55.8269 39.1273 54.4996 37.8091 52.8815 37.8091ZM30.636 47.3909V35.8546H29.3633V47.3909C28.7121 47.5368 28.1298 47.8997 27.7119 48.42C27.294 48.9403 27.0653 49.5872 27.0633 50.2546C27.0633 51.8727 28.3815 53.1909 29.9996 53.1909C31.6178 53.1909 32.936 51.8727 32.936 50.2546C32.9451 48.8637 31.9542 47.6818 30.636 47.3909ZM22.0269 41.9182L18.2724 45.6637C18.1542 45.7818 18.0815 45.9455 18.0815 46.1182V51.4727C17.4303 51.6187 16.848 51.9815 16.4301 52.5018C16.0122 53.0222 15.7835 53.669 15.7815 54.3364C15.7815 55.9546 17.0996 57.2727 18.7178 57.2727C20.336 57.2727 21.6542 55.9546 21.6542 54.3364C21.6542 52.9364 20.6633 51.7637 19.3542 51.4727V46.3818L23.1087 42.6273C23.2269 42.5091 23.2996 42.3455 23.2996 42.1727V35.8455H22.0178V41.9182H22.0269ZM41.9178 51.4727V46.1182C41.9178 45.9455 41.8542 45.7818 41.7269 45.6637L37.9815 41.9182V35.8546H36.6996V42.1818C36.6996 42.3546 36.7633 42.5182 36.8906 42.6364L40.636 46.3909V51.4818C39.9848 51.6278 39.4025 51.9906 38.9846 52.5109C38.5667 53.0312 38.338 53.6781 38.336 54.3455C38.336 55.9637 39.6542 57.2818 41.2724 57.2818C42.8906 57.2818 44.2087 55.9637 44.2087 54.3455C44.2134 53.6767 43.9885 53.0266 43.5716 52.5038C43.1546 51.9809 42.5709 51.617 41.9178 51.4727ZM17.2178 40.7455V35.8546H15.936V40.1091H9.98146C9.83555 39.4579 9.47268 38.8756 8.95237 38.4577C8.43205 38.0398 7.78518 37.8111 7.11783 37.8091C5.49965 37.8091 4.18146 39.1273 4.18146 40.7455C4.18146 42.3637 5.49965 43.6818 7.11783 43.6818C8.51783 43.6818 9.69055 42.6909 9.98146 41.3818H16.5815C16.9269 41.3818 17.2178 41.1 17.2178 40.7455Z"/>
</svg>
